<svg version="1.1" xmlns="http://www.w3.org/2000/svg" viewBox="39.6 336.35 1411.079561042524 1411.072" width="689" height="689" preserveAspectRatio="none" display="block" xmlns:xlink="http://www.w3.org/1999/xlink"><g class="gaitu-clip-target" mask="url(#SvgjsMask1001)"><path fill="#ffffff" d="M 0 0 L 1493 0 L 1493 2048 L 0 2048 L 0 0 z" data-c-fill="fafafa" fill-opacity="1"/><path fill="rgb(0,0,0)" d="M 703.492 342.026 C 1090.04 319.594 1421.63 614.66 1444.26 1001.19 C 1466.88 1387.73 1171.99 1719.47 785.463 1742.29 C 398.663 1765.13 66.6339 1469.98 43.9902 1083.16 C 21.3464 696.354 316.67 364.474 703.492 342.026 z" data-c-fill="0"/><path fill="#ffffff" d="M 380.625 585.076 C 430.585 608.022 474.735 632.701 516.926 668.125 C 525.312 675.166 536.537 686.312 545.892 691.727 C 550.218 694.231 577.942 680.032 583.286 678.606 C 693.079 636.495 822.147 640.638 929.367 688.882 C 932.726 690.404 943.221 694.929 946.538 692.023 C 996.301 648.411 1048.9 610.028 1111.14 584.995 C 1128.46 645.845 1135.42 709.174 1131.74 772.333 C 1130.92 786.924 1129.19 801.111 1127.57 815.593 C 1127.05 820.261 1126.18 829.137 1129.5 832.719 C 1133.78 837.335 1140.71 835.189 1146.88 835.539 C 1152.97 842.917 1165.11 873.904 1168.73 883.502 C 1202.17 972.278 1206.47 1069.4 1181.02 1160.78 C 1161.48 1164.39 1141.72 1167.39 1122.1 1170.57 C 1112.66 1172.1 1101.54 1172.85 1092.63 1176.08 C 1090.29 1176.93 1088.47 1178.05 1086.94 1180.03 C 1084.9 1182.67 1083.69 1185.72 1084.3 1189.08 C 1084.88 1192.28 1086.77 1195.64 1089.54 1197.44 C 1097.95 1202.95 1159.72 1189.29 1173.56 1186.85 C 1163.81 1212.81 1155.59 1230.62 1143.66 1255.78 C 1135.47 1253.55 1093.94 1238.95 1088.29 1243.42 C 1061.74 1264.45 1118.19 1274.09 1130.62 1277.5 C 1116.93 1298.98 1107.95 1311.76 1091.77 1331.54 C 1063.04 1365.04 1029.91 1394.5 993.273 1419.12 C 892.645 1485.57 769.7 1509.22 651.601 1484.84 C 524.244 1458.69 427.696 1385.02 357.162 1277.71 C 368.335 1274.96 401.725 1267.74 406.946 1258.42 C 408.251 1256.09 408.56 1253.34 407.803 1250.78 C 403.937 1237.47 389.537 1243.01 380.191 1245.79 C 368.409 1249.29 356.611 1252.74 344.809 1256.17 C 333.498 1233.89 323.592 1210.93 315.15 1187.41 C 328.367 1188.96 392.037 1202.17 399.255 1197.68 C 402.09 1195.88 404.055 1192.99 404.686 1189.69 C 408.023 1173.09 380.224 1173.22 369.334 1171.42 C 348.437 1167.88 327.516 1164.49 306.57 1161.25 C 302.849 1144.21 298.433 1125.09 295.988 1108.01 C 285.216 1033.93 292.723 958.346 317.854 887.835 C 324.891 868.486 333.363 850.593 342.219 832.092 C 346.936 835.474 351.932 837.838 357.728 835.01 C 358.646 834.558 359.491 833.971 360.236 833.268 C 363.464 830.21 364.448 827.23 364.112 822.907 C 363.191 811.082 361.796 799.297 360.82 787.475 C 354.54 719.364 361.261 650.679 380.625 585.076 z" data-c-fill="fafafa" fill-opacity="1"/><path fill="rgb(0,0,0)" d="M965.277 1078.19C995.601 1072.38 1024.9 1092.23 1030.76 1122.54 1036.62 1152.85 1016.83 1182.19 986.527 1188.1 956.148 1194.03 926.725 1174.18 920.85 1143.79 914.975 1113.4 934.878 1084.01 965.277 1078.19zM503.727 1075.64C523.319 1071.68 543.526 1078.56 556.634 1093.65 569.742 1108.74 573.729 1129.71 567.072 1148.56 560.415 1167.4 544.142 1181.22 524.465 1184.73 494.517 1190.07 465.846 1170.32 460.165 1140.43 454.484 1110.55 473.907 1081.66 503.727 1075.64zM714.647 1147.3C802.707 1145.24 790.879 1149.96 751.818 1216.34L751.681 1230.81C761.665 1242.93 805.528 1281.34 806.362 1292.38 806.568 1295.1 805.762 1297.87 803.918 1299.92 801.869 1302.19 799.08 1303.54 796 1303.43 784.759 1303.04 764.546 1276.68 756.236 1268.25 751.039 1263 745.861 1257.36 740.776 1251.97 728.059 1264.17 703.289 1292.78 687.18 1301.75 682.598 1304.3 669.435 1294.51 676.723 1285.71 692.897 1266.18 713.113 1249.75 729.995 1230.57 730.015 1228.03 730.175 1217.95 729.486 1216.26 722.919 1199.87 711.049 1185.4 704.283 1169.1 699.644 1157.93 703.78 1150.82 714.647 1147.3z" data-c-fill="0"/><path fill="#fff0c4" d="M 350.182 1315.83 C 352.224 1316.7 378.784 1351.67 383.645 1357.24 C 409.829 1387.23 437.752 1411.95 470.451 1434.6 L 360.71 1598.73 C 350.142 1591.5 339.84 1583.56 329.608 1575.84 C 276.265 1533.99 223.235 1479.75 186.205 1422.66 C 238.98 1390.51 297.931 1350.01 350.182 1315.83 z" data-c-fill="fcebba" fill-opacity="1"/><path fill="rgb(234,187,70)" d="M 1312.44 679.911 C 1316.85 682.064 1326.58 700.919 1329.71 706.541 C 1364.86 768.792 1389.83 836.258 1403.69 906.39 C 1388.3 908.411 1370.57 912.437 1355.03 915.288 L 1240.33 936.827 C 1232.06 938.679 1221.17 940.244 1212.64 941.709 C 1199.34 884.755 1184.97 846.712 1154.64 796.649 C 1154.82 791.634 1155.29 786.347 1155.66 781.319 C 1169.5 770.92 1198.59 753.44 1214.26 743.256 C 1246.19 722.513 1280.05 699.56 1312.44 679.911 z" data-c-fill="eabb46"/><path fill="#fff0c4" d="M660.398 1512.92C710.102 1522.33 773.72 1522.49 823.536 1513.91 835.296 1578.35 849.236 1643.83 861.656 1708.34L821.236 1713.72C754.114 1721.36 686.228 1719.02 619.794 1706.75 634.215 1643.74 646.505 1576.65 660.398 1512.92zM82.899 913.358C131.039 923.394 179.122 934.9 227.126 945.668 242.332 949.079 257.747 952.404 272.788 956.446 261.664 1015.26 263.918 1063.99 271.611 1122.46 262.072 1123.7 246.781 1127.28 237.126 1129.23 229.785 1130.46 222.454 1131.84 215.173 1133.38 170.734 1142.81 125.703 1149.89 81.3381 1159.6 80.223 1149.95 78.8657 1140.34 77.4657 1130.73 70.3214 1081.7 69.344 1031.86 73.5257 982.511 75.4899 959.332 79.1502 936.308 82.899 913.358zM709.095 367.43C745.999 363.511 832.888 369.807 869.592 378.45 855.462 439.747 841.551 509.012 829.308 570.979 816.203 568.181 803.156 566.679 789.858 565.168 749.053 562.085 705.761 561.698 665.433 569.546 661.769 546.434 656.881 521.79 652.544 498.65 644.935 458.048 637.48 415.923 628.62 375.677 656.784 372.086 680.631 369.248 709.095 367.43zM1130.67 1324.58C1148.3 1335.36 1168.15 1350.22 1185.64 1362.24L1292.9 1435.82C1251.5 1492.89 1211.89 1532.88 1157.18 1576.23 1146.36 1584.84 1135.27 1593.1 1123.92 1600.99 1111.02 1579.66 1096.29 1557.54 1082.81 1536.44 1061.28 1502.27 1039.57 1468.21 1017.68 1434.26 1049.51 1412.63 1080.67 1383.78 1106.02 1354.86 1114.52 1345.17 1122.34 1334.55 1130.67 1324.58z" data-c-fill="fcebba" fill-opacity="1"/><path fill="rgb(234,187,70)" d="M995.685 1448.97C1002.21 1456.95 1022.12 1490.28 1028.99 1501.15 1053.12 1539.49 1077.5 1577.66 1102.13 1615.68 1048.44 1647.19 1001.36 1671.04 940.593 1688.94 922.068 1694.75 905.452 1698.81 886.615 1703.39 886.272 1700.3 885.752 1697.33 885.158 1694.28 873.106 1632.47 861.924 1570.01 848.404 1508.54 901.661 1498.28 949.283 1476.09 995.685 1448.97zM894.882 383.396C968.179 398.581 1050.1 434.904 1112.2 475.838 1105.59 486.365 1096.3 498.93 1089.15 509.57L1035.94 588.555C1025.55 605.746 1004.44 612.516 986.347 627.697 940.141 600.763 904.975 589.853 854.804 575.402L894.882 383.396zM599.232 382.241C602.082 381.851 600.814 381.597 603.209 382.705 605.809 388.657 604.738 391.997 606.147 397.933 609.026 410.063 611.233 422.169 613.56 434.406 622.816 480.974 631.502 527.653 639.615 574.432 597.084 581.247 540.586 605.493 503.106 626.004 481.656 612.236 479.975 611.779 466.958 590.069L417.481 512.969C408.171 498.48 396.982 481.894 388.57 467.084 455.44 426.827 522.146 398.186 599.232 382.241zM492.025 1449.05C502.628 1454.28 515.521 1462.62 526.995 1468.48 561.153 1485.9 597.332 1499.05 634.711 1507.61 620.05 1570.17 607.138 1638.07 593.65 1701.2 573.971 1696.39 557.834 1691.92 538.489 1686.07 494.956 1673.78 419.609 1638.9 382.62 1613.17 395.193 1596.64 412.853 1568.36 424.467 1550.72L492.025 1449.05zM175.818 676.469C184.616 681.533 197.721 690.943 206.415 696.805L268.812 739.075 312.034 767.964C317.751 771.773 329.826 779.15 334.292 783.432 335.353 786.893 336.133 790.731 334.578 794.136 328.176 808.158 318.02 821.938 311.486 835.861 296.967 866.796 286.366 897.65 278.42 930.668 272.121 928.982 263.288 927.249 256.774 925.783 201.983 911.815 144.136 900.51 88.7445 887.071 108.431 803.692 131.81 750.15 175.818 676.469z" data-c-fill="eabb46"/><path fill="#fff0c4" d="M 1406.99 932.33 L 1408.17 932.908 C 1410.27 939.106 1412.13 961.652 1412.98 968.869 C 1420.21 1030.92 1418.78 1101.74 1406.68 1163.58 L 1257.75 1131.68 C 1244.5 1129.41 1229.3 1125.91 1216.39 1122.58 C 1224.66 1082.24 1225.78 1008.34 1217.53 967.942 C 1246.98 961.683 1281.36 955.973 1311.19 950.516 L 1406.99 932.33 z" data-c-fill="fcebba" fill-opacity="1"/><path fill="rgb(234,187,70)" d="M1260.15 1159.36C1305.48 1167.06 1356.09 1179.54 1401.79 1188.54 1382.43 1277.04 1354.68 1338.49 1307.63 1414.49 1285.01 1400.02 1260.9 1382.76 1238.85 1367.29 1208.25 1347.01 1175.54 1323.93 1145.6 1302.61 1149.88 1296.44 1152.64 1291.6 1156.28 1285.12 1168.18 1289.15 1224.91 1309.74 1233.43 1306.22 1236.28 1305.05 1238.91 1301.93 1240.05 1299.12 1241.22 1296.24 1241 1292.87 1239.7 1290.06 1238.83 1288.18 1237.48 1286.55 1235.7 1285.49 1225.07 1279.13 1183.61 1268.16 1169.1 1263.38 1182.46 1237.45 1193.32 1210.3 1201.51 1182.3 1214.34 1180.53 1246.56 1178.21 1256.88 1170.77 1260.21 1168.37 1260.12 1163.21 1260.15 1159.36zM229.606 1157.23 231.363 1157.69C230.553 1173.33 236.41 1174.33 249.823 1176.5 261.97 1178.47 274.261 1180.39 286.428 1182.28 296.718 1214 304.722 1234.05 319.193 1264.35 300.174 1269.12 278.859 1276.91 260.198 1283.17 246.745 1287.68 246.366 1304.36 260.089 1306.79 266.472 1307.93 285.361 1300.82 291.997 1298.71L331.541 1286.27 336.782 1293.77C307.71 1310.32 271.547 1336.5 241.94 1355.22 218.841 1370.62 195.477 1385.61 171.858 1400.2 129.119 1335.47 103.547 1260.44 86.2023 1185.41 90.8425 1184.23 95.9616 1183.2 100.687 1182.32 143.661 1174.27 186.697 1165.5 229.606 1157.23z" data-c-fill="eabb46"/><path fill="#fff0c4" d="M366.149 481.964C367.842 483.03 425.279 573.706 429.774 581.533 418.268 574.548 385.445 558.518 372.437 557.055 356.723 555.288 348.97 605.953 345.927 618.9 335.804 661.976 333.533 707.537 333.882 751.868L299.503 728.659C263.269 704.225 227.166 679.597 191.197 654.775 230.997 591.39 304.19 523.394 366.149 481.964zM1133.88 490.57C1144.56 496.853 1160.59 510.089 1170.43 517.934 1222.12 559.138 1260.56 604.238 1299.28 657.055 1268.41 675.362 1232.59 700.225 1201.62 720.057 1186.76 729.564 1172.53 739.6 1157.34 748.753 1159.94 694.51 1149.97 622.638 1132.4 570.761 1130.97 566.544 1127.1 559.516 1122.93 558.187 1112.74 554.946 1088.33 567.904 1078.18 572.443 1097.11 546.891 1115.05 517.006 1133.88 490.57z" data-c-fill="fcebba" fill-opacity="1"/><path fill="#ffffff" d="M 731.035 589.437 C 810.692 585.642 892.872 607.86 963.165 644.502 C 955.059 651.389 947.009 658.343 939.019 665.364 C 883.109 640.524 822.905 626.787 761.755 624.916 C 684.471 622.204 622.086 634.673 551.441 664.284 C 543.195 657.048 534.775 650.012 526.188 643.185 C 596.609 607.823 652.298 592.746 731.035 589.437 z" data-c-fill="fafafa" fill-opacity="1"/><path fill="rgb(234,187,70)" d="M274.53 1148.27 276.667 1148.46C278.726 1151.2 278.431 1150.03 278.573 1153.14L277.273 1154.48C272.044 1155.82 266.611 1154.5 261.231 1153.63 259.257 1153.38 257.913 1153.44 256.344 1152.25 259.995 1150.29 269.96 1149.04 274.53 1148.27zM1210.08 1148.61C1215.71 1149.57 1223.19 1150.57 1228.38 1152.54L1227.67 1153.47C1221.45 1153.81 1214.32 1157.87 1209.97 1153.66L1210.08 1148.61z" data-c-fill="eabb46"/></g><defs><mask class="gaitu-clip-container" id="SvgjsMask1001"><svg width="1411.079561042524" height="1411.072" fill="#ffffff" viewBox="0.25 0.42 511 511" x="39.6" y="336.35">
  <path d="M.247 256.115C.247 114.901 114.723.425 255.937.425a255.69 255.69 0 0 1 255.69 255.69c0 141.214-114.476 255.69-255.69 255.69S.247 397.33.247 256.115zM255.937.425v511.38M.247 256.115h511.38" stroke="none"/>
</svg></mask></defs></svg>